<svg width="58" height="58" viewBox="0 0 58 58" fill="none" xmlns="http://www.w3.org/2000/svg">
<g clip-path="url(#clip0_5_48)">
<path d="M45.9167 40.8417C48.8533 40.2454 51.4636 38.5792 53.2408 36.1666C55.0181 33.754 55.8355 30.767 55.5343 27.7857C55.2332 24.8043 53.835 22.0412 51.6112 20.0327C49.3873 18.0242 46.4966 16.9137 43.5 16.9167H40.455C39.6544 13.8169 38.0964 10.9644 35.9211 8.61542C33.7458 6.26641 31.0211 4.49438 27.9918 3.45843C24.9625 2.42249 21.7234 2.15505 18.5652 2.68013C15.407 3.20522 12.4286 4.50638 9.89749 6.46681C7.36636 8.42724 5.36169 10.9856 4.06348 13.9121C2.76526 16.8386 2.21414 20.0417 2.45958 23.2338C2.70503 26.426 3.73936 29.5072 5.46971 32.2008C7.20006 34.8945 9.57227 37.1163 12.3733 38.6667M31.4167 26.5834L21.75 41.0834H36.25L26.5833 55.5834" stroke="white" stroke-width="4" stroke-linecap="round" stroke-linejoin="round"/>
</g>
<defs>
<clipPath id="clip0_5_48">
<rect width="58" height="58" fill="white"/>
</clipPath>
</defs>
</svg>
