<svg width="1173" height="1144" viewBox="0 0 1173 1144" fill="none" xmlns="http://www.w3.org/2000/svg">
<g filter="url(#filter0_d_21_4)">
<path d="M960.624 637.829C908.977 658.288 449.315 796.273 449.315 796.273L531.951 603.029L685.417 244.986H804.5M960.624 637.829C995.302 624.092 1165 568.042 1165 568.042L1029.98 587.988L943.654 603.029M960.624 637.829L943.654 603.029M804.5 244.986L879.833 453.599L943.654 603.029M804.5 244.986H724.153M611.635 665.809C611.635 665.809 728.949 390.819 741.123 390.819C753.297 390.819 833.719 637.829 833.719 637.829L611.635 665.809Z" stroke="#00FFC4" stroke-opacity="0.44" stroke-width="20"/>
<path d="M220.683 973.559L704.442 6L26 1120L220.683 1069.01L409.467 1018.01L875.528 892.493L925.673 1041.55L1108.56 1018.01L999.417 751.282L220.683 973.559Z" stroke="#00FFC4" stroke-opacity="0.44" stroke-width="20"/>
</g>
<defs>
<filter id="filter0_d_21_4" x="0.578857" y="0.798553" width="1171.56" height="1143.15" filterUnits="userSpaceOnUse" color-interpolation-filters="sRGB">
<feFlood flood-opacity="0" result="BackgroundImageFix"/>
<feColorMatrix in="SourceAlpha" type="matrix" values="0 0 0 0 0 0 0 0 0 0 0 0 0 0 0 0 0 0 127 0" result="hardAlpha"/>
<feOffset dy="4"/>
<feGaussianBlur stdDeviation="2"/>
<feComposite in2="hardAlpha" operator="out"/>
<feColorMatrix type="matrix" values="0 0 0 0 0 0 0 0 0 0 0 0 0 0 0 0 0 0 0.25 0"/>
<feBlend mode="normal" in2="BackgroundImageFix" result="effect1_dropShadow_21_4"/>
<feBlend mode="normal" in="SourceGraphic" in2="effect1_dropShadow_21_4" result="shape"/>
</filter>
</defs>
</svg>
